<svg xmlns="http://www.w3.org/2000/svg" version="1.1" xmlns:xlink="http://www.w3.org/1999/xlink" width="200" height="200"><svg xmlns="http://www.w3.org/2000/svg" version="1.1" xmlns:xlink="http://www.w3.org/1999/xlink" viewBox="0 0 200 200"><rect width="200" height="200" fill="url('#gradient')"></rect><defs><linearGradient id="SvgjsLinearGradient1001" gradientTransform="rotate(45 0.5 0.5)"><stop offset="0%" stop-color="#326d7e"></stop><stop offset="100%" stop-color="#2c3034"></stop></linearGradient></defs><g><g fill="#fcfaf8" transform="matrix(4.1834289648840945,0,0,4.1834289648840945,9.116374082850683,129.74355536535953)" stroke="#f7e9ad" stroke-width="0.25"><path d="M9.08-7.79L3.74-5.95L9.08-4.15L9.08-1.15L0.45-4.67L0.45-7.27L9.08-10.78L9.08-7.79ZM20.22-8.30L20.22-5.66L14.70-5.66L14.70 0L11.27 0L11.27-14.22L20.78-14.22L20.78-11.57L14.70-11.57L14.70-8.30L20.22-8.30ZM32.78-12.46L26.05-2.64L32.85-2.64L32.85 0L21.78 0L21.78-1.81L28.55-11.57L21.74-11.57L21.74-14.22L32.78-14.22L32.78-12.46ZM34.41-4.13L39.73-5.98L34.41-7.78L34.41-10.77L43.00-7.26L43.00-4.66L34.41-1.14L34.41-4.13Z"></path></g></g></svg><style>@media (prefers-color-scheme: light) { :root { filter: none; } }
@media (prefers-color-scheme: dark) { :root { filter: none; } }
</style></svg>